<svg xmlns="http://www.w3.org/2000/svg" viewBox="0 0 64 64" width="64" height="64">
  <defs>
    <linearGradient id="brand" x1="0" y1="0" x2="1" y2="1">
      <stop offset="0%" stop-color="#f472b6" />
      <stop offset="100%" stop-color="#db2777" />
    </linearGradient>
  </defs>
  <circle cx="32" cy="32" r="32" fill="url(#brand)" />
  <g transform="translate(16, 16) scale(1.3333)" stroke="#ffffff" stroke-width="2" fill="none" stroke-linecap="round" stroke-linejoin="round">
    <path d="M21.42 10.922a1 1 0 0 0-.019-1.838L12.83 5.18a2 2 0 0 0-1.66 0L2.6 9.08a1 1 0 0 0 0 1.832l8.57 3.908a2 2 0 0 0 1.66 0z" />
    <path d="M22 10v6" />
    <path d="M6 12.5V16a6 3 0 0 0 12 0v-3.5" />
  </g>
</svg>
